<svg width="24" height="24" viewBox="0 0 24 24" fill="none" xmlns="http://www.w3.org/2000/svg">
<path d="M11 19H13V18H14C14.2833 18 14.5208 17.9042 14.7125 17.7125C14.9042 17.5208 15 17.2833 15 17V14C15 13.7167 14.9042 13.4792 14.7125 13.2875C14.5208 13.0958 14.2833 13 14 13H11V12H15V10H13V9H11V10H10C9.71667 10 9.47917 10.0958 9.2875 10.2875C9.09583 10.4792 9 10.7167 9 11V14C9 14.2833 9.09583 14.5208 9.2875 14.7125C9.47917 14.9042 9.71667 15 10 15H13V16H9V18H11V19ZM6 22C5.45 22 4.97917 21.8042 4.5875 21.4125C4.19583 21.0208 4 20.55 4 20V4C4 3.45 4.19583 2.97917 4.5875 2.5875C4.97917 2.19583 5.45 2 6 2H14L20 8V20C20 20.55 19.8042 21.0208 19.4125 21.4125C19.0208 21.8042 18.55 22 18 22H6ZM13 8V4H6V20H18V8H13Z" fill="#F4F6F8"/>
</svg>
