<svg width="126" height="68" viewBox="0 0 126 68" fill="none" xmlns="http://www.w3.org/2000/svg">
<path d="M66.6065 46.2331C65.8797 45.5607 64.796 45.0465 63.1706 45.0465C60.9373 45.0465 59.5101 46.22 59.5101 47.8286C59.5101 49.358 60.6069 50.1756 62.9195 50.5052C64.5054 50.7293 65.1264 51.0326 65.1264 51.9161C65.1264 52.8786 64.1882 53.3532 62.9987 53.3532C61.6376 53.3532 60.7918 52.984 60.1311 52.2985L59.1797 53.4588C59.9989 54.2367 60.9108 54.751 62.9327 54.751C65.4436 54.751 66.7519 53.5379 66.7519 51.837C66.7519 50.2019 65.7211 49.4767 63.5802 49.1339C62.0473 48.8965 61.1355 48.5932 61.1355 47.7627C61.1355 46.9847 61.9284 46.444 63.1838 46.444C64.2938 46.444 64.9811 46.7342 65.6683 47.3934L66.6065 46.2331ZM75.2492 54.0916L74.5753 52.8127V47.6571H73.0291V51.4941C73.0291 52.6412 72.3155 53.3929 71.2318 53.3929C70.3597 53.3929 69.8443 52.9049 69.8443 51.8764V47.6571H68.2981V52.1007C68.2981 53.8938 69.2628 54.7114 70.7693 54.7114C72.0247 54.7114 72.7251 54.1708 72.8573 53.9071L73.2142 53.1818H73.2802C73.2934 53.4323 73.3595 53.6566 73.4519 53.8412L73.9144 54.751L75.2492 54.0916ZM78.2359 47.6571H76.6897V54.5267H78.2359V50.6898C78.2359 49.5691 78.9363 48.7912 80.0332 48.7912C80.9053 48.7912 81.4207 49.2789 81.4207 50.3074V54.5267H82.9669V50.0965C82.9669 48.3032 82.0417 47.4725 80.5352 47.4725C79.4252 47.4725 78.7513 47.9868 78.6587 48.211L78.3019 48.9889H78.2359V47.6571Z" fill="#F47216"/>
<path d="M66.0512 36.1595L65.1525 35.909V35.8168L65.9719 35.5398C66.1041 35.5003 66.1833 35.4344 66.223 35.3816C66.6327 34.9861 66.8969 34.4322 66.8969 33.8389C66.8969 32.428 65.8661 31.4523 64.0822 31.4523H59.7607V40.6822H64.2275C66.1173 40.6822 67.1612 39.6405 67.1612 38.111C67.1612 37.3462 66.8045 36.7134 66.3023 36.2914C66.2494 36.2518 66.1833 36.2123 66.0512 36.1595ZM63.8045 36.5156C64.9411 36.5156 65.5094 37.1221 65.5094 37.9397C65.5094 38.7702 64.994 39.3637 63.9103 39.3637H61.3598V36.5156H63.8045ZM63.6857 35.3157H61.3598V32.7709H63.7518C64.7824 32.7709 65.2583 33.3378 65.2583 34.0235C65.2583 34.7092 64.7693 35.3157 63.6857 35.3157ZM71.9847 35.0257C72.4869 35.0257 72.857 35.1707 73.1742 35.4079L73.8084 33.9444C73.4649 33.7467 73.0421 33.628 72.4209 33.628C71.3505 33.628 70.8878 34.2081 70.7954 34.4322L70.4914 35.197H70.4122V33.8126H68.8659V40.6822H70.4122V37.1484C70.4122 35.8695 71.0465 35.0257 71.9847 35.0257ZM81.3939 40.247L80.72 38.968V33.8126H79.1738V37.6495C79.1738 38.7967 78.4602 39.5481 77.3765 39.5481C76.5044 39.5481 75.989 39.0604 75.989 38.0319V33.8126H74.4428V38.256C74.4428 40.0492 75.4075 40.8668 76.914 40.8668C78.1694 40.8668 78.8698 40.3261 79.002 40.0624L79.3589 39.3372H79.4249C79.4381 39.5878 79.5042 39.8118 79.5966 39.9965L80.0591 40.9062L81.3939 40.247ZM82.8741 38.823L82.1868 39.9305C82.9268 40.4976 83.9576 40.8668 85.1603 40.8668C86.7725 40.8668 88.1337 40.1548 88.1337 38.6252C88.1337 37.3858 87.1558 36.8188 85.821 36.5947C84.7373 36.4232 84.0766 36.3045 84.0766 35.7112C84.0766 35.2366 84.4335 34.8937 85.3585 34.8937C86.1116 34.8937 86.8386 35.1707 87.3275 35.5003L88.0147 34.3796C87.3407 33.918 86.4025 33.6148 85.3717 33.6148C83.733 33.6148 82.5569 34.4059 82.5569 35.7903C82.5569 37.0034 83.5612 37.5573 85.0281 37.7945C86.125 37.966 86.627 38.1769 86.627 38.7043C86.627 39.2581 86.1382 39.6009 85.2395 39.6009C84.3674 39.6009 83.5743 39.3241 82.8741 38.823ZM89.7722 38.823L89.0849 39.9305C89.8251 40.4976 90.8559 40.8668 92.0584 40.8668C93.6706 40.8668 95.0318 40.1548 95.0318 38.6252C95.0318 37.3858 94.0539 36.8188 92.7191 36.5947C91.6356 36.4232 90.9748 36.3045 90.9748 35.7112C90.9748 35.2366 91.3316 34.8937 92.2566 34.8937C93.0099 34.8937 93.7367 35.1707 94.2257 35.5003L94.9128 34.3796C94.2389 33.918 93.3006 33.6148 92.2698 33.6148C90.6311 33.6148 89.455 34.4059 89.455 35.7903C89.455 37.0034 90.4594 37.5573 91.9262 37.7945C93.0231 37.966 93.5253 38.1769 93.5253 38.7043C93.5253 39.2581 93.0363 39.6009 92.1376 39.6009C91.2655 39.6009 90.4726 39.3241 89.7722 38.823ZM99.723 39.5746C98.5734 39.5746 97.8332 38.8495 97.8069 37.5308H102.736C102.881 34.63 101.349 33.628 99.6569 33.628C97.4765 33.628 96.2209 35.1838 96.2209 37.2408C96.2209 39.5481 97.5557 40.8668 99.6834 40.8668C100.793 40.8668 101.454 40.5766 102.287 39.8515L101.454 38.8626C100.899 39.3768 100.423 39.5746 99.723 39.5746ZM97.8332 36.4101C98.0448 35.3157 98.6923 34.8277 99.6174 34.8277C100.569 34.8277 101.177 35.4344 101.216 36.4101H97.8332ZM104.335 39.2185C104.335 40.4844 105.128 40.9327 106.727 40.8009V39.4428C106.106 39.5087 105.881 39.2978 105.881 38.8361V31.4523H104.335V39.2185ZM108.167 38.823L107.48 39.9305C108.22 40.4976 109.251 40.8668 110.454 40.8668C112.066 40.8668 113.427 40.1548 113.427 38.6252C113.427 37.3858 112.449 36.8188 111.115 36.5947C110.031 36.4232 109.37 36.3045 109.37 35.7112C109.37 35.2366 109.727 34.8937 110.652 34.8937C111.405 34.8937 112.132 35.1707 112.621 35.5003L113.308 34.3796C112.634 33.918 111.696 33.6148 110.665 33.6148C109.026 33.6148 107.85 34.4059 107.85 35.7903C107.85 37.0034 108.855 37.5573 110.321 37.7945C111.418 37.966 111.921 38.1769 111.921 38.7043C111.921 39.2581 111.432 39.6009 110.533 39.6009C109.661 39.6009 108.868 39.3241 108.167 38.823Z" fill="#F47216"/>
<path d="M44.2011 13.0001C38.6916 13.0001 34.1839 17.2677 33.8101 22.6701C33.4363 17.2677 28.9286 13.0001 23.419 13.0001H13V23.3398C13 29.0812 17.6648 33.7353 23.419 33.7353C23.4192 33.7353 23.4192 33.7353 23.4194 33.7353C23.6642 33.7353 23.9062 33.7469 24.1469 33.7634C23.9062 33.78 23.6642 33.7914 23.4194 33.7914H23.419C17.6648 33.7914 13 38.4457 13 44.1872V54.5269H23.419C28.8072 54.5269 33.2396 50.4458 33.7821 45.2129V54.5269H44.2011C49.9555 54.5269 54.6203 49.8724 54.6203 44.1309C54.6203 38.634 50.3432 34.1366 44.9289 33.7634C44.6884 33.78 44.4463 33.7914 44.2014 33.7914C44.2013 33.7914 44.2013 33.7914 44.2011 33.7914C38.7011 33.7914 34.1996 38.0443 33.8122 43.4333C33.4682 38.2583 29.33 34.1207 24.1469 33.7634C29.3203 33.4068 33.4522 29.284 33.8101 24.1229C34.1679 29.284 38.3 33.4068 43.4732 33.7634C43.714 33.7469 43.956 33.7353 44.2009 33.7353H44.2011C49.9555 33.7353 54.6203 29.0812 54.6203 23.3398V13.0001H44.2011Z" fill="url(#paint0_linear_123_473)"/>
<defs>
<linearGradient id="paint0_linear_123_473" x1="12.9999" y1="54.5268" x2="33.8382" y2="54.5268" gradientUnits="userSpaceOnUse">
<stop stop-color="#F79210"/>
<stop offset="0.189174" stop-color="#F79210"/>
<stop offset="1" stop-color="#FBC707"/>
</linearGradient>
</defs>
</svg>
