<svg width="52" height="52" viewBox="0 0 52 52" fill="none" xmlns="http://www.w3.org/2000/svg">
<rect width="52" height="52" fill="white"/>
<path d="M38.105 2.00006C31.6869 2.00006 26.4357 6.93292 26.0002 13.1774C25.5647 6.93292 20.3136 2.00006 13.8954 2.00006H1.75781V13.9514C1.75781 20.5878 7.19197 25.9676 13.8954 25.9676C14.1807 25.9676 14.4629 25.9809 14.7433 26C14.4629 26.0192 14.181 26.0325 13.8956 26.0325C7.19225 26.0325 1.75781 31.4123 1.75781 38.0487V50H13.8954C20.1722 50 25.3356 45.2829 25.9675 39.2342V50H38.1051C44.8085 50 50.2426 44.6202 50.2426 37.9838C50.2426 31.6299 45.2603 26.4314 38.953 26C38.6727 26.0192 38.3906 26.0325 38.1054 26.0325C31.6984 26.0325 26.4541 30.9483 26.0027 37.1774C25.6018 31.1955 20.7813 26.413 14.7433 26C20.7699 25.5879 25.5833 20.8225 26.0002 14.8566C26.4171 20.8225 31.2305 25.5879 37.2572 26C37.5375 25.9809 37.8194 25.9676 38.1048 25.9676C44.8083 25.9676 50.2426 20.5878 50.2426 13.9514V2.00006H38.105Z" fill="url(#paint0_linear_84_1120)"/>
<defs>
<linearGradient id="paint0_linear_84_1120" x1="1.75777" y1="50" x2="26.0329" y2="50" gradientUnits="userSpaceOnUse">
<stop stop-color="#F79210"/>
<stop offset="0.189174" stop-color="#F79210"/>
<stop offset="1" stop-color="#FBC707"/>
</linearGradient>
</defs>
</svg>
