<svg width="80" height="56" viewBox="0 0 80 56" fill="none" xmlns="http://www.w3.org/2000/svg">
<path d="M52.105 4.00006C45.6869 4.00006 40.4357 8.93292 40.0002 15.1774C39.5647 8.93292 34.3136 4.00006 27.8954 4.00006H15.7578V15.9514C15.7578 22.5878 21.192 27.9676 27.8954 27.9676C28.1807 27.9676 28.4629 27.9809 28.7433 28C28.4629 28.0192 28.181 28.0325 27.8956 28.0325C21.1923 28.0325 15.7578 33.4123 15.7578 40.0487V52H27.8954C34.1722 52 39.3356 47.2829 39.9675 41.2342V52H52.1051C58.8085 52 64.2426 46.6202 64.2426 39.9838C64.2426 33.6299 59.2603 28.4314 52.953 28C52.6727 28.0192 52.3906 28.0325 52.1054 28.0325C45.6984 28.0325 40.4541 32.9483 40.0027 39.1774C39.6018 33.1955 34.7813 28.413 28.7433 28C34.7699 27.5879 39.5833 22.8225 40.0002 16.8566C40.4171 22.8225 45.2305 27.5879 51.2572 28C51.5375 27.9809 51.8194 27.9676 52.1048 27.9676C58.8083 27.9676 64.2426 22.5878 64.2426 15.9514V4.00006H52.105Z" fill="url(#paint0_linear_87_135)"/>
<defs>
<linearGradient id="paint0_linear_87_135" x1="15.7578" y1="52" x2="40.0329" y2="52" gradientUnits="userSpaceOnUse">
<stop stop-color="#F79210"/>
<stop offset="0.189174" stop-color="#F79210"/>
<stop offset="1" stop-color="#FBC707"/>
</linearGradient>
</defs>
</svg>
