<svg width="51" height="51" viewBox="0 0 51 51" fill="none" xmlns="http://www.w3.org/2000/svg">
<path d="M4.25 46.75L8.5 25.5H42.5L46.75 46.75H4.25ZM6.375 8.5V4.25H12.75V8.5H6.375ZM9.45625 42.5H23.375V38.25H10.3063L9.45625 42.5ZM13.0156 19.8156L9.9875 16.8406L14.5031 12.325L17.5313 15.3L13.0156 19.8156ZM11.1563 34H23.375V29.75H12.0063L11.1563 34ZM25.5 14.875C22.5604 14.875 20.0547 13.8391 17.9828 11.7672C15.9109 9.69531 14.875 7.18958 14.875 4.25H19.125C19.125 6.02083 19.7448 7.52604 20.9844 8.76563C22.224 10.0052 23.7292 10.625 25.5 10.625C27.2708 10.625 28.776 10.0052 30.0156 8.76563C31.2552 7.52604 31.875 6.02083 31.875 4.25H36.125C36.125 7.18958 35.0891 9.69531 33.0172 11.7672C30.9453 13.8391 28.4396 14.875 25.5 14.875ZM23.375 23.375V17H27.625V23.375H23.375ZM27.625 42.5H41.5438L40.6938 38.25H27.625V42.5ZM27.625 34H39.8438L38.9938 29.75H27.625V34ZM37.9844 19.8156L33.5219 15.3L36.4969 12.325L41.0125 16.7875L37.9844 19.8156ZM38.25 8.5V4.25H44.625V8.5H38.25Z" fill="#F4F6F8"/>
</svg>
